<?xml version="1.0"?>
<!-- Created by MetaPost 2.00 on 2020.06.02:2021 -->
<svg version="1.1" xmlns="http://www.w3.org/2000/svg" xmlns:xlink="http://www.w3.org/1999/xlink" width="196.919174" height="152.236191" viewBox="0 0 196.919174 152.236191">
<!-- Original BoundingBox: -141.667206 -33.598419 55.251968 118.637772 -->
  <path d="M141.000000 118.000000L98.480316 146.346451L98.480316 32.960648L141.000000 4.614197Z" style="fill: inherit;stroke: none;"></path>
  <g transform="matrix(-1.000000,-0.000000,-0.000000,1.000000,0.000000,0.000000)">
    <path d="M-141.000000 118.000000L-98.480316 146.346451L-98.480316 32.960648L-141.000000 4.614197Z" style="stroke:inherit; stroke-width: 8.503937;stroke-linecap: round;stroke-linejoin: round;stroke-miterlimit: 10.000000;fill: none;"></path>
  </g>
  <path d="M60.212616 45.716248L60.212616 8.865997L60.212860 8.866165L136.748383 8.866165L136.748032 8.866867L136.748032 113.748657C136.748032 113.749741,136.748108 113.748032,136.747787 113.748032L60.212265 113.748032C60.211411 113.748032,60.212616 113.748947,60.212616 113.748199L60.212616 76.897949L51.708679 76.897293L51.708679 118.000000C51.708679 120.348297,53.612350 122.251968,55.960648 122.251968L141.000000 122.251968C143.348297 122.251968,145.251968 120.348297,145.251968 118.000000L145.251968 4.614197C145.251968 2.265900,143.348297 0.362228,141.000000 0.362228L55.960648 0.362228C53.612350 0.362228,51.708679 2.265900,51.708679 4.614197L51.708679 45.716904Z" style="fill: inherit;stroke: none;"></path>
  <g transform="matrix(-1.000000,-0.000000,-0.000000,1.000000,0.000000,0.000000)">
    <path d="M-3.167435 61.307098L-37.535461 41.464661L-37.535461 81.149536Z" style="stroke:inherit; stroke-width: 5.669281;stroke-linecap: round;stroke-linejoin: round;stroke-miterlimit: 10.000000;fill: none;"></path>
  </g>
  <path d="M3.167435 61.307098L37.535461 41.464661L37.535461 81.149536Z" style="fill: inherit;stroke: none;"></path>
  <g transform="matrix(-1.000000,-0.000000,-0.000000,1.000000,0.000000,0.000000)">
    <path d="M-68.716553 61.307098L-37.535461 61.307098" style="stroke:inherit; stroke-width: 14.173203;stroke-linecap: round;stroke-linejoin: round;stroke-miterlimit: 10.000000;fill: none;"></path>
  </g>
</svg>
