<?xml version="1.0"?>
<!-- Created by MetaPost 2.00 on 2020.06.02:2021 -->
<svg version="1.1" xmlns="http://www.w3.org/2000/svg" xmlns:xlink="http://www.w3.org/1999/xlink" width="132.433716" height="167.681259" viewBox="0 0 132.433716 167.681259">
<!-- Original BoundingBox: -40.685013 -69.031479 91.748703 98.649780 -->
  <path d="M40.000000 98.000000C47.666656 98.000000,54.898285 96.228348,61.912399 93.570862L54.825897 72.311356C47.811783 74.968842,40.580154 76.740494,32.913498 76.740494Z" style="fill: inherit;stroke: none;"></path>
  <path d="M25.826660 55.479996C33.493317 55.479996,40.724945 53.708344,47.739059 51.050858L40.652557 29.791351C33.638443 32.448837,26.406815 34.220490,18.740158 34.220490Z" style="fill: inherit;stroke: none;"></path>
  <path d="M54.825897 72.311356C61.839890 69.653915,68.636383 66.110687,75.432861 62.567444L68.346024 41.306946C61.549545 44.850189,54.753052 48.393417,47.739059 51.050858Z" style="fill: inherit;stroke: none;"></path>
  <path d="M82.519699 83.826767C89.316284 80.283463,96.112869 76.740158,103.126984 74.082672L96.040482 52.823166C89.026367 55.480652,82.229782 59.023956,75.433197 62.567261Z" style="fill: inherit;stroke: none;"></path>
  <path d="M68.346359 41.306763C75.142944 37.763458,81.939529 34.220154,88.953644 31.562668L81.867142 10.303162C74.853027 12.960648,68.056442 16.503952,61.259857 20.047256Z" style="fill: inherit;stroke: none;"></path>
  <path d="M96.040466 52.823166C103.054565 50.165695,110.286194 48.394043,117.952850 48.394043L110.866013 27.133545C103.199356 27.133545,95.967728 28.905197,88.953629 31.562668Z" style="fill: inherit;stroke: none;"></path>
  <path d="M47.086639 161.779510L4.566956 34.220490" style="stroke:inherit; stroke-width: 8.503922;stroke-linecap: round;stroke-linejoin: round;stroke-miterlimit: 10.000000;fill: none;"></path>
  <path d="M40.896378 100.689178C71.563019 100.689178,95.269089 72.342728,125.935730 72.342728C127.487534 72.342728,128.306046 70.494843,127.728531 68.757172C127.726807 68.751984,106.470413 4.982849,106.468689 4.977661C106.011948 3.603409,104.402802 3.184860,102.883133 3.184860C72.216492 3.184860,48.510422 31.531311,17.843781 31.531311C16.291977 31.531311,15.473465 33.379196,16.050980 35.116867C16.052704 35.122055,37.309097 98.891190,37.310822 98.896378C37.767563 100.270630,39.376709 100.689178,40.896378 100.689178Z" style="stroke:inherit; stroke-width: 5.669281;stroke-linecap: round;stroke-linejoin: round;stroke-miterlimit: 10.000000;fill: none;"></path>
</svg>
