<?xml version="1.0"?>
<!-- Created by MetaPost 2.00 on 2020.06.02:2021 -->
<svg version="1.1" xmlns="http://www.w3.org/2000/svg" xmlns:xlink="http://www.w3.org/1999/xlink" width="61.669189" height="46.339905" viewBox="0 0 61.669189 46.339905">
<!-- Original BoundingBox: -17.299194 -23.169952 44.369995 23.169952 -->
  <path d="M31.173203 42.842484L17.000000 31.503922L2.826797 31.503922L2.826797 14.496078L17.000000 14.496078L31.173203 3.157516Z" style="fill: inherit;stroke: none;"></path>
  <path d="M31.173203 42.842484L17.000000 31.503922L2.826797 31.503922L2.826797 14.496078L17.000000 14.496078L31.173203 3.157516Z" style="stroke:inherit; stroke-width: 4.251968;stroke-linecap: round;stroke-linejoin: round;stroke-miterlimit: 10.000000;fill: none;"></path>
  <path d="M51.217163 43.043961C55.766006 37.353546,58.244003 30.285110,58.244003 23.000000C58.244003 15.714890,55.766006 8.646454,51.217163 2.956039" style="stroke:inherit; stroke-width: 4.251968;stroke-linecap: round;stroke-linejoin: round;stroke-miterlimit: 10.000000;fill: none;"></path>
  <path d="M45.203964 37.030762C48.152893 32.946747,49.740067 28.037399,49.740067 23.000000C49.740067 17.962601,48.152893 13.053253,45.203964 8.969238" style="stroke:inherit; stroke-width: 4.251968;stroke-linecap: round;stroke-linejoin: round;stroke-miterlimit: 10.000000;fill: none;"></path>
  <path d="M39.190765 31.017563C40.532852 28.558350,41.236130 25.801590,41.236130 23.000000C41.236130 20.198410,40.532852 17.441650,39.190765 14.982437" style="stroke:inherit; stroke-width: 4.251968;stroke-linecap: round;stroke-linejoin: round;stroke-miterlimit: 10.000000;fill: none;"></path>
</svg>
