<?xml version="1.0"?>
<svg version="1.1" xmlns="http://www.w3.org/2000/svg" xmlns:xlink="http://www.w3.org/1999/xlink" width="58.692810" height="58.692810" viewBox="0 0 58.692810 58.692810">
  <path d="M18.007843 29.000000C18.007843 29.751831,17.709137 30.472778,17.177551 31.004349C16.645981 31.535934,15.925034 31.834641,15.173203 31.834641C14.421371 31.834641,13.700424 31.535934,13.168854 31.004349C12.637268 30.472778,12.338562 29.751831,12.338562 29.000000C12.338562 28.248169,12.637268 27.527222,13.168854 26.995651C13.700424 26.464066,14.421371 26.165359,15.173203 26.165359C15.925034 26.165359,16.645981 26.464066,17.177551 26.995651C17.709137 27.527222,18.007843 28.248169,18.007843 29.000000Z M32.181046 29.000000C32.181046 29.751831,31.882339 30.472778,31.350754 31.004349C30.819183 31.535934,30.098236 31.834641,29.346405 31.834641C28.594574 31.834641,27.873627 31.535934,27.342056 31.004349C26.810471 30.472778,26.511765 29.751831,26.511765 29.000000C26.511765 28.248169,26.810471 27.527222,27.342056 26.995651C27.873627 26.464066,28.594574 26.165359,29.346405 26.165359C30.098236 26.165359,30.819183 26.464066,31.350754 26.995651C31.882339 27.527222,32.181046 28.248169,32.181046 29.000000Z M46.354248 29.000000C46.354248 29.751831,46.055542 30.472778,45.523956 31.004349C44.992386 31.535934,44.271439 31.834641,43.519608 31.834641C42.767776 31.834641,42.046829 31.535934,41.515259 31.004349C40.983673 30.472778,40.684967 29.751831,40.684967 29.000000C40.684967 28.248169,40.983673 27.527222,41.515259 26.995651C42.046829 26.464066,42.767776 26.165359,43.519608 26.165359C44.271439 26.165359,44.992386 26.464066,45.523956 26.995651C46.055542 27.527222,46.354248 28.248169,46.354248 29.000000Z M57.692810 29.000000C57.692810 22.985367,54.705750 17.217789,49.389923 12.965118C44.074112 8.712448,36.864670 6.322784,29.346405 6.322784C21.828140 6.322784,14.618698 8.712448,9.302887 12.965118C3.987061 17.217789,1.000000 22.985367,1.000000 29.000000C1.000000 34.817505,3.794464 40.403870,8.787735 44.611893L8.787659 44.611923C6.603897 48.192184,3.993591 51.518005,1.000000 54.511597C6.978333 54.511597,12.561371 52.661758,17.174057 49.479630L17.173813 49.479614C20.941467 50.912933,25.094559 51.677216,29.346405 51.677216C36.864670 51.677216,44.074112 49.287552,49.389923 45.034882C54.705750 40.782211,57.692810 35.014633,57.692810 29.000000Z" style="stroke:none;fill:inherit;"></path>
</svg>
