<?xml version="1.0"?>
<svg version="1.1" xmlns="http://www.w3.org/2000/svg" xmlns:xlink="http://www.w3.org/1999/xlink" width="100" height="100" viewBox="0 0 12 12">
  <path d="M6.24 4.5L4.5 4.58L4.5 5.05C5.09 5.05,5.16 5.05,5.16 5.44L5.16 8.53L4.47 8.53L4.47 9C4.78 8.99,5.27 8.97,5.69 8.97C5.99 8.97,6.5 8.99,6.86 9L6.86 8.53L6.24 8.53M6.34 2.83C6.34 2.39,5.98 2.05,5.56 2.05C5.13 2.05,4.78 2.4,4.78 2.83C4.78 3.26,5.13 3.61,5.56 3.61C5.98 3.61,6.34 3.27,6.34 2.83ZM10.341248 5.540741C10.341248 6.800583,9.840714 8.008667,8.949936 8.899429C8.059174 9.790207,6.851089 10.290741,5.591248 10.290741C4.331406 10.290741,3.123322 9.790207,2.232559 8.899429C1.341782 8.008667,0.841248 6.800583,0.841248 5.540741C0.841248 4.280899,1.341782 3.072815,2.232559 2.182053C3.123322 1.291275,4.331406 0.790741,5.591248 0.790741C6.851089 0.790741,8.059174 1.291275,8.949936 2.182053C9.840714 3.072815,10.341248 4.280899,10.341248 5.540741Z" style="stroke:none;fill: inherit;"/>
</svg>
