<?xml version="1.0"?>
<!-- Created by MetaPost 2.00 on 2020.06.04:1809 -->
<svg version="1.1" xmlns="http://www.w3.org/2000/svg" xmlns:xlink="http://www.w3.org/1999/xlink" width="61.669189" height="46.840057" viewBox="0 0 61.669189 46.840057">
<!-- Original BoundingBox: -17.299194 -23.420029 44.369995 23.420029 -->
  <path d="M10.241364 43.294037L50.829437 2.705963" style="stroke:inherit; stroke-width: 4.251968;stroke-linecap: round;stroke-linejoin: round;stroke-miterlimit: 10.000000;fill: none;"></path>
  <path d="M51.892761 7.655487C54.645233 12.274429,56.118011 17.572830,56.118011 23.000000C56.118011 29.802628,53.804123 36.402939,49.556549 41.716476C48.823410 42.633606,48.972549 43.971436,49.889679 44.704575C50.806808 45.437714,52.144638 45.288574,52.877777 44.371445C57.727890 38.304169,60.369995 30.767578,60.369995 23.000000C60.369995 16.442429,58.486923 10.049484,54.981995 4.566254Z" style="fill: inherit;stroke: none;"></path>
  <path d="M45.634399 13.913727C46.932007 16.750275,47.614075 19.847626,47.614075 23.000000C47.614075 27.590576,46.167679 32.064438,43.480331 35.786194C42.792969 36.738129,43.007462 38.067032,43.959396 38.754395C44.911331 39.441757,46.240234 39.227264,46.927597 38.275330C50.138107 33.829056,51.866058 28.484222,51.866058 23.000000C51.866058 18.706909,50.807205 14.499237,48.807175 10.741150Z" style="fill: inherit;stroke: none;"></path>
  <path d="M38.916885 20.631485C39.045074 21.411774,39.110138 22.203812,39.110138 23.000000C39.110138 25.445709,38.496185 27.852280,37.324585 29.999100C36.762115 31.029770,37.141632 32.321274,38.172302 32.883743C39.202972 33.446213,40.494476 33.066696,41.056946 32.036026C42.569519 29.264435,43.362122 26.157471,43.362122 23.000000C43.362122 20.996948,43.043152 19.014221,42.423737 17.124557Z" style="fill: inherit;stroke: none;"></path>
  <path d="M21.623154 37.925018L29.845108 44.502609C31.237122 45.616226,33.299194 44.625137,33.299194 42.842484L33.299194 26.249359Z" style="fill: inherit;stroke: none;"></path>
  <path d="M13.892563 33.629913L2.826797 33.629913C1.652649 33.629913,0.700806 32.678070,0.700806 31.503922L0.700806 14.496078C0.700806 13.321930,1.652649 12.370087,2.826797 12.370087L16.254303 12.370087L16.254318 12.370041L29.845108 1.497391C31.237122 0.383774,33.299194 1.374863,33.299194 3.157516L33.299194 14.223236Z" style="fill: inherit;stroke: none;"></path>
</svg>
