<?xml version="1.0"?>
<!-- Created by MetaPost 2.00 on 2020.06.04:1809 -->
<svg version="1.1" xmlns="http://www.w3.org/2000/svg" xmlns:xlink="http://www.w3.org/1999/xlink" width="61.669189" height="46.840057" viewBox="0 0 61.669189 46.840057">
<!-- Original BoundingBox: -17.299194 -23.420029 44.369995 23.420029 -->
  <path d="M16.254303 12.370087L2.826797 12.370087C1.652649 12.370087,0.700806 13.321930,0.700806 14.496078L0.700806 31.503922C0.700806 32.678070,1.652649 33.629913,2.826797 33.629913L16.254303 33.629913L16.254318 33.629959L29.845108 44.502609C31.237122 45.616226,33.299194 44.625137,33.299194 42.842484L33.299194 3.157516C33.299194 1.374863,31.237122 0.383774,29.845108 1.497391L16.254318 12.370041Z" style="fill: inherit;stroke: none;"></path>
  <path d="M49.556549 41.716476C53.804123 36.402939,56.118011 29.802628,56.118011 23.000000C56.118011 16.197372,53.804123 9.597061,49.556549 4.283524C48.823410 3.366394,48.972549 2.028564,49.889679 1.295425C50.806808 0.562286,52.144638 0.711426,52.877777 1.628555C57.727890 7.695831,60.369995 15.232422,60.369995 23.000000C60.369995 30.767578,57.727890 38.304169,52.877777 44.371445C52.144638 45.288574,50.806808 45.437714,49.889679 44.704575C48.972549 43.971436,48.823410 42.633606,49.556549 41.716476Z" style="fill: inherit;stroke: none;"></path>
  <path d="M43.480331 35.786194C46.167679 32.064438,47.614075 27.590576,47.614075 23.000000C47.614075 18.409424,46.167679 13.935562,43.480331 10.213806C42.792969 9.261871,43.007462 7.932968,43.959396 7.245605C44.911331 6.558243,46.240234 6.772736,46.927597 7.724670C50.138107 12.170944,51.866058 17.515778,51.866058 23.000000C51.866058 28.484222,50.138107 33.829056,46.927597 38.275330C46.240234 39.227264,44.911331 39.441757,43.959396 38.754395C43.007462 38.067032,42.792969 36.738129,43.480331 35.786194Z" style="fill: inherit;stroke: none;"></path>
  <path d="M37.324585 29.999100C38.496185 27.852280,39.110138 25.445709,39.110138 23.000000C39.110138 20.554291,38.496185 18.147720,37.324585 16.000900C36.762115 14.970230,37.141632 13.678726,38.172302 13.116257C39.202972 12.553787,40.494476 12.933304,41.056946 13.963974C42.569519 16.735565,43.362122 19.842529,43.362122 23.000000C43.362122 26.157471,42.569519 29.264435,41.056946 32.036026C40.494476 33.066696,39.202972 33.446213,38.172302 32.883743C37.141632 32.321274,36.762115 31.029770,37.324585 29.999100Z" style="fill: inherit;stroke: none;"></path>
</svg>
