<?xml version="1.0"?>
<!-- Created by MetaPost 2.00 on 2020.06.13:1730 -->
<svg version="1.1" xmlns="http://www.w3.org/2000/svg" xmlns:xlink="http://www.w3.org/1999/xlink" width="47.354248" height="41.684982" viewBox="0 0 47.353 41.683">
<!-- Original BoundingBox: -23.677124 -18.007858 23.677124 23.677124 -->
  <path d="M42.842484 27.251968L42.842484 23.000000C42.842484 17.737213,40.751541 12.690598,37.030472 8.969528C33.309402 5.248459,28.262787 3.157516,23.000000 3.157516C17.737213 3.157516,12.690598 5.248459,8.969528 8.969528C5.248459 12.690598,3.157516 17.737213,3.157516 23.000000L3.157516 27.251968" style="stroke:inherit; stroke-width: 5.669281;stroke-linecap: round;stroke-linejoin: round;stroke-miterlimit: 10.000000;fill: none;"></path>
  <path d="M14.496078 21.582687L12.370102 21.582687C10.114624 21.582687,7.951782 22.478806,6.357040 24.073547C4.762299 25.668289,3.866180 27.831131,3.866180 30.086609C3.866180 32.342087,4.762299 34.504929,6.357040 36.099670C7.951782 37.694412,10.114624 38.590530,12.370102 38.590530L14.496078 38.590530Z" style="stroke:inherit; stroke-width: 2.834641;stroke-linecap: round;stroke-linejoin: round;stroke-miterlimit: 10.000000;fill: none;"></path>
  <path d="M14.496078 21.582687L12.370102 21.582687C10.114624 21.582687,7.951782 22.478806,6.357040 24.073547C4.762299 25.668289,3.866180 27.831131,3.866180 30.086609C3.866180 32.342087,4.762299 34.504929,6.357040 36.099670C7.951782 37.694412,10.114624 38.590530,12.370102 38.590530L14.496078 38.590530Z" style="fill: inherit;stroke: transparent;"></path>
  <path d="M31.503922 21.582687L33.629898 21.582687C35.885376 21.582687,38.048218 22.478806,39.642960 24.073547C41.237701 25.668289,42.133820 27.831131,42.133820 30.086609C42.133820 32.342087,41.237701 34.504929,39.642960 36.099670C38.048218 37.694412,35.885376 38.590530,33.629898 38.590530L31.503922 38.590530Z" style="stroke:inherit; stroke-width: 2.834641;stroke-linecap: round;stroke-linejoin: round;stroke-miterlimit: 10.000000;fill: none;"></path>
  <path d="M31.503922 21.582687L33.629898 21.582687C35.885376 21.582687,38.048218 22.478806,39.642960 24.073547C41.237701 25.668289,42.133820 27.831131,42.133820 30.086609C42.133820 32.342087,41.237701 34.504929,39.642960 36.099670C38.048218 37.694412,35.885376 38.590530,33.629898 38.590530L31.503922 38.590530Z" style="fill: inherit;stroke: transparent;"></path>
</svg>
