<?xml version="1.0"?>
<!-- Created by MetaPost 2.00 on 2020.06.13:1704 -->
<svg version="1.1" xmlns="http://www.w3.org/2000/svg" xmlns:xlink="http://www.w3.org/1999/xlink" width="33.181061" height="47.354263" viewBox="0 0 33.181061 47.353">
<!-- Original BoundingBox: -16.590530 -23.677139 16.590530 23.677124 -->
  <path d="M7.496078 23.000000C7.496078 25.255478,8.392197 27.418320,9.986938 29.013062C11.581680 30.607803,13.744522 31.503922,16.000000 31.503922C18.255478 31.503922,20.418320 30.607803,22.013062 29.013062C23.607803 27.418320,24.503922 25.255478,24.503922 23.000000L24.503922 8.826797C24.503922 6.571320,23.607803 4.408478,22.013062 2.813736C20.418320 1.218994,18.255478 0.322876,16.000000 0.322876C13.744522 0.322876,11.581680 1.218994,9.986938 2.813736C8.392197 4.408478,7.496078 6.571320,7.496078 8.826797Z" style="fill: inherit;stroke: transparent;"></path>
  <path d="M16.000000 34.338562C12.992691 34.338562,10.108917 33.143738,7.982590 31.017410C5.856262 28.891083,4.661438 26.007309,4.661438 23.000000L4.661438 18.748032C4.661438 18.372116,4.512085 18.011642,4.246292 17.745850C3.980499 17.480057,3.620026 17.330704,3.244110 17.330704L1.826797 17.330704C1.450882 17.330704,1.090408 17.480057,0.824615 17.745850C0.558823 18.011642,0.409470 18.372116,0.409470 18.748032L0.409470 23.000000C0.409470 27.135056,2.052353 31.100250,4.976059 34.023941C7.394028 36.441925,10.524368 37.983856,13.873993 38.444946L13.874008 38.444901L13.874008 41.425171L8.913406 41.425171C8.537491 41.425171,8.177017 41.574524,7.911224 41.840317C7.645432 42.106110,7.496078 42.466583,7.496078 42.842499L7.496078 44.259811C7.496078 44.635727,7.645432 44.996201,7.911224 45.261993C8.177017 45.527786,8.537491 45.677139,8.913406 45.677139L16.000000 45.677139L16.000000 45.677139L23.086594 45.677139C23.462509 45.677139,23.822983 45.527786,24.088776 45.261993C24.354568 44.996201,24.503922 44.635727,24.503922 44.259811L24.503922 42.842499C24.503922 42.466583,24.354568 42.106110,24.088776 41.840317C23.822983 41.574524,23.462509 41.425171,23.086594 41.425171L18.125992 41.425171L18.125992 38.444901L18.126007 38.444946C21.475632 37.983856,24.605972 36.441925,27.023941 34.023941C29.947647 31.100250,31.590530 27.135056,31.590530 23.000000L31.590530 18.748032C31.590530 18.372116,31.441177 18.011642,31.175385 17.745850C30.909592 17.480057,30.549118 17.330704,30.173203 17.330704L28.755890 17.330704C28.379974 17.330704,28.019501 17.480057,27.753708 17.745850C27.487915 18.011642,27.338562 18.372116,27.338562 18.748032L27.338562 23.000000C27.338562 26.007309,26.143738 28.891083,24.017410 31.017410C21.891083 33.143738,19.007309 34.338562,16.000000 34.338562Z" style="fill: inherit;stroke: transparent;"></path>
</svg>
