<?xml version="1.0"?>
<!-- Created by MetaPost 2.00 on 2020.06.08:2200 -->
<svg version="1.1" xmlns="http://www.w3.org/2000/svg" xmlns:xlink="http://www.w3.org/1999/xlink" width="21.425018" height="21.425018" viewBox="0 0 21.425 21.424">
<!-- Original BoundingBox: -10.712509 -10.712509 10.712509 10.712509 -->
  <g transform="matrix(0.258819,-0.965926,0.965926,0.258819,0.000000,0.000000)">
    <path d="M2.141529 12.247453C2.141523 10.618493,1.709962 9.034240,0.910388 7.647058L-0.933854 8.704134C-1.560390 7.618912,-2.457241 6.729432,-3.523438 6.112854L-2.464763 4.269097C-3.875574 3.454602,-5.463174 3.035978,-7.064319 3.034849L-7.071068 5.160826C-8.324121 5.160830,-9.542787 5.492805,-10.609832 6.107882L-11.677358 4.269094C-13.088162 5.083559,-14.244508 6.249460,-15.046064 7.635509L-13.208265 8.704138C-13.834798 9.789368,-14.156822 11.010626,-14.157688 12.242271L-16.283660 12.247447C-16.283654 13.876407,-15.852093 15.460660,-15.052519 16.847842L-13.208277 15.790766C-12.581742 16.875988,-11.684890 17.765468,-10.618693 18.382046L-11.677368 20.225803C-10.266557 21.040298,-8.678957 21.458922,-7.077812 21.460050L-7.071063 19.334074C-5.818010 19.334070,-4.599345 19.002095,-3.532299 18.387018L-2.464774 20.225806C-1.053969 19.411341,0.102376 18.245440,0.903933 16.859391L-0.933866 15.790762C-0.307334 14.705532,0.014690 13.484274,0.015557 12.252629Z M-4.236425 12.247448C-4.236433 12.999280,-4.535127 13.720233,-5.066722 14.251803C-5.598299 14.783383,-6.319233 15.082097,-7.071064 15.082090C-7.822896 15.082083,-8.543849 14.783389,-9.075418 14.251794C-9.606999 13.720217,-9.905713 12.999283,-9.905706 12.247452C-9.905699 11.495620,-9.607004 10.774667,-9.075409 10.243097C-8.543833 9.711517,-7.822899 9.412803,-7.071067 9.412810C-6.319236 9.412817,-5.598282 9.711511,-5.066713 10.243106C-4.535132 10.774683,-4.236418 11.495617,-4.236425 12.247448Z" style="stroke:inherit; stroke-width: 1;stroke-linecap: round;stroke-linejoin: round;stroke-miterlimit: 10;fill: inherit;"></path>
  </g>
</svg>
